{
	"asset":{
		"generator":"Khronos glTF Blender I/O v4.2.60",
		"version":"2.0"
	},
	"extensionsUsed":[
		"KHR_materials_sheen"
	],
	"scene":0,
	"scenes":[
		{
			"name":"Scene",
			"nodes":[
				0,
				1
			]
		}
	],
	"nodes":[
		{
			"mesh":0,
			"name":"Cone",
			"translation":[
				0,
				4.41619873046875,
				-0.38367047905921936
			]
		},
		{
			"name":"Empty",
			"rotation":[
				0.5,
				-0.5,
				0.5,
				0.5
			]
		}
	],
	"materials":[
		{
			"doubleSided":true,
			"extensions":{
				"KHR_materials_sheen":{
					"sheenColorFactor":[
						1.0,
						1.0,
						1.0
					],
					"sheenRoughnessFactor":0.5
				}
			},
			"name":"Material.007",
			"normalTexture":{
				"index":0
			},
			"pbrMetallicRoughness":{
				"baseColorTexture":{
					"index":1
				},
				"metallicFactor":0,
				"metallicRoughnessTexture":{
					"index":2
				}
			}
		},
		{
			"doubleSided":true,
			"extensions":{
				"KHR_materials_sheen":{
					"sheenColorFactor":[
						1.0,
						1.0,
						1.0
					],
					"sheenRoughnessFactor":0.5
				}
			},
			"name":"Material.011",
			"normalTexture":{
				"index":3
			},
			"pbrMetallicRoughness":{
				"baseColorTexture":{
					"index":4
				},
				"metallicFactor":0,
				"metallicRoughnessTexture":{
					"index":5
				}
			}
		},
		{
			"doubleSided":true,
			"extensions":{
				"KHR_materials_sheen":{
					"sheenColorFactor":[
						1.0,
						1.0,
						1.0
					],
					"sheenRoughnessFactor":0.5
				}
			},
			"name":"Material.006",
			"normalTexture":{
				"index":6
			},
			"pbrMetallicRoughness":{
				"baseColorTexture":{
					"index":7
				},
				"metallicFactor":0,
				"metallicRoughnessTexture":{
					"index":8
				}
			}
		},
		{
			"doubleSided":true,
			"extensions":{
				"KHR_materials_sheen":{
					"sheenColorFactor":[
						1.0,
						1.0,
						1.0
					],
					"sheenRoughnessFactor":0.5
				}
			},
			"name":"Material.012",
			"normalTexture":{
				"index":9
			},
			"pbrMetallicRoughness":{
				"baseColorTexture":{
					"index":10
				},
				"metallicFactor":0,
				"metallicRoughnessTexture":{
					"index":11
				}
			}
		},
		{
			"doubleSided":true,
			"extensions":{
				"KHR_materials_sheen":{
					"sheenColorFactor":[
						1.0,
						1.0,
						1.0
					],
					"sheenRoughnessFactor":0.5
				}
			},
			"name":"Material.005",
			"normalTexture":{
				"index":12
			},
			"pbrMetallicRoughness":{
				"baseColorTexture":{
					"index":13
				},
				"metallicFactor":0,
				"metallicRoughnessTexture":{
					"index":14
				}
			}
		},
		{
			"doubleSided":true,
			"extensions":{
				"KHR_materials_sheen":{
					"sheenColorFactor":[
						1.0,
						1.0,
						1.0
					],
					"sheenRoughnessFactor":0.5
				}
			},
			"name":"Material.013",
			"normalTexture":{
				"index":15
			},
			"pbrMetallicRoughness":{
				"baseColorTexture":{
					"index":16
				},
				"metallicFactor":0,
				"metallicRoughnessTexture":{
					"index":17
				}
			}
		},
		{
			"doubleSided":true,
			"extensions":{
				"KHR_materials_sheen":{
					"sheenColorFactor":[
						1.0,
						1.0,
						1.0
					],
					"sheenRoughnessFactor":0.5
				}
			},
			"name":"Material.004",
			"normalTexture":{
				"index":18
			},
			"pbrMetallicRoughness":{
				"baseColorTexture":{
					"index":19
				},
				"metallicFactor":0,
				"metallicRoughnessTexture":{
					"index":20
				}
			}
		}
	],
	"meshes":[
		{
			"name":"Cone",
			"primitives":[
				{
					"attributes":{
						"POSITION":0,
						"NORMAL":1,
						"TEXCOORD_0":2
					},
					"indices":3,
					"material":0
				},
				{
					"attributes":{
						"POSITION":4,
						"NORMAL":5,
						"TEXCOORD_0":6
					},
					"indices":7,
					"material":1
				},
				{
					"attributes":{
						"POSITION":8,
						"NORMAL":9,
						"TEXCOORD_0":10
					},
					"indices":11,
					"material":2
				},
				{
					"attributes":{
						"POSITION":12,
						"NORMAL":13,
						"TEXCOORD_0":14
					},
					"indices":15,
					"material":3
				},
				{
					"attributes":{
						"POSITION":16,
						"NORMAL":17,
						"TEXCOORD_0":18
					},
					"indices":19,
					"material":4
				},
				{
					"attributes":{
						"POSITION":20,
						"NORMAL":21,
						"TEXCOORD_0":22
					},
					"indices":23,
					"material":5
				},
				{
					"attributes":{
						"POSITION":24,
						"NORMAL":25,
						"TEXCOORD_0":26
					},
					"indices":27,
					"material":6
				}
			]
		}
	],
	"textures":[
		{
			"sampler":0,
			"source":0
		},
		{
			"sampler":0,
			"source":1
		},
		{
			"sampler":0,
			"source":2
		},
		{
			"sampler":0,
			"source":0
		},
		{
			"sampler":0,
			"source":1
		},
		{
			"sampler":0,
			"source":2
		},
		{
			"sampler":0,
			"source":0
		},
		{
			"sampler":0,
			"source":1
		},
		{
			"sampler":0,
			"source":2
		},
		{
			"sampler":0,
			"source":0
		},
		{
			"sampler":0,
			"source":1
		},
		{
			"sampler":0,
			"source":2
		},
		{
			"sampler":0,
			"source":0
		},
		{
			"sampler":0,
			"source":1
		},
		{
			"sampler":0,
			"source":2
		},
		{
			"sampler":0,
			"source":0
		},
		{
			"sampler":0,
			"source":1
		},
		{
			"sampler":0,
			"source":2
		},
		{
			"sampler":0,
			"source":0
		},
		{
			"sampler":0,
			"source":1
		},
		{
			"sampler":0,
			"source":2
		}
	],
	"images":[
		{
			"mimeType":"image/png",
			"name":"Fabric-Cotton_normal",
			"uri":"Textures/Fabric-Cotton_normal.png"
		},
		{
			"mimeType":"image/png",
			"name":"Fabric-Cotton_diffuse",
			"uri":"Textures/Fabric-Cotton_diffuse.png"
		},
		{
			"mimeType":"image/png",
			"name":"Fabric-Cotton_roughness",
			"uri":"Textures/Fabric-Cotton_roughness.png"
		}
	],
	"accessors":[
		{
			"bufferView":0,
			"componentType":5126,
			"count":66,
			"max":[
				1,
				-0.27579182386398315,
				1
			],
			"min":[
				-1,
				-1,
				-1
			],
			"type":"VEC3"
		},
		{
			"bufferView":1,
			"componentType":5126,
			"count":66,
			"type":"VEC3"
		},
		{
			"bufferView":2,
			"componentType":5126,
			"count":66,
			"type":"VEC2"
		},
		{
			"bufferView":3,
			"componentType":5123,
			"count":384,
			"type":"SCALAR"
		},
		{
			"bufferView":4,
			"componentType":5126,
			"count":774,
			"max":[
				1.0650062561035156,
				-0.6159055233001709,
				2.3225955963134766
			],
			"min":[
				-1.0650062561035156,
				-3.888982057571411,
				-0.622480034828186
			],
			"type":"VEC3"
		},
		{
			"bufferView":5,
			"componentType":5126,
			"count":774,
			"type":"VEC3"
		},
		{
			"bufferView":6,
			"componentType":5126,
			"count":774,
			"type":"VEC2"
		},
		{
			"bufferView":7,
			"componentType":5123,
			"count":2844,
			"type":"SCALAR"
		},
		{
			"bufferView":8,
			"componentType":5126,
			"count":9308,
			"max":[
				0.7944352626800537,
				-1.2155379056930542,
				1.1486501693725586
			],
			"min":[
				-0.7944351434707642,
				-4.421726226806641,
				-0.9066039323806763
			],
			"type":"VEC3"
		},
		{
			"bufferView":9,
			"componentType":5126,
			"count":9308,
			"type":"VEC3"
		},
		{
			"bufferView":10,
			"componentType":5126,
			"count":9308,
			"type":"VEC2"
		},
		{
			"bufferView":11,
			"componentType":5123,
			"count":48384,
			"type":"SCALAR"
		},
		{
			"bufferView":12,
			"componentType":5126,
			"count":774,
			"max":[
				0.9434530735015869,
				-2.770371675491333,
				-0.129635751247406
			],
			"min":[
				-0.7962139844894409,
				-3.6556897163391113,
				-1.2624351978302002
			],
			"type":"VEC3"
		},
		{
			"bufferView":13,
			"componentType":5126,
			"count":774,
			"type":"VEC3"
		},
		{
			"bufferView":14,
			"componentType":5126,
			"count":774,
			"type":"VEC2"
		},
		{
			"bufferView":15,
			"componentType":5123,
			"count":3840,
			"type":"SCALAR"
		},
		{
			"bufferView":16,
			"componentType":5126,
			"count":1274,
			"max":[
				1.1372841596603394,
				-1.0028856992721558,
				-0.0993230938911438
			],
			"min":[
				-0.30460047721862793,
				-2.8599977493286133,
				-1.9868141412734985
			],
			"type":"VEC3"
		},
		{
			"bufferView":17,
			"componentType":5126,
			"count":1274,
			"type":"VEC3"
		},
		{
			"bufferView":18,
			"componentType":5126,
			"count":1274,
			"type":"VEC2"
		},
		{
			"bufferView":19,
			"componentType":5123,
			"count":6120,
			"type":"SCALAR"
		},
		{
			"bufferView":20,
			"componentType":5126,
			"count":774,
			"max":[
				1.590254306793213,
				-2.6876416206359863,
				1.3756223917007446
			],
			"min":[
				0.7944017648696899,
				-3.4845328330993652,
				-0.12716490030288696
			],
			"type":"VEC3"
		},
		{
			"bufferView":21,
			"componentType":5126,
			"count":774,
			"type":"VEC3"
		},
		{
			"bufferView":22,
			"componentType":5126,
			"count":774,
			"type":"VEC2"
		},
		{
			"bufferView":23,
			"componentType":5123,
			"count":3840,
			"type":"SCALAR"
		},
		{
			"bufferView":24,
			"componentType":5126,
			"count":272,
			"max":[
				1.1906918287277222,
				-2.6927387714385986,
				1.2188328504562378
			],
			"min":[
				0.807436466217041,
				-3.5291686058044434,
				-1.8358358144760132
			],
			"type":"VEC3"
		},
		{
			"bufferView":25,
			"componentType":5126,
			"count":272,
			"type":"VEC3"
		},
		{
			"bufferView":26,
			"componentType":5126,
			"count":272,
			"type":"VEC2"
		},
		{
			"bufferView":27,
			"componentType":5123,
			"count":1206,
			"type":"SCALAR"
		}
	],
	"bufferViews":[
		{
			"buffer":0,
			"byteLength":792,
			"byteOffset":0,
			"target":34962
		},
		{
			"buffer":0,
			"byteLength":792,
			"byteOffset":792,
			"target":34962
		},
		{
			"buffer":0,
			"byteLength":528,
			"byteOffset":1584,
			"target":34962
		},
		{
			"buffer":0,
			"byteLength":768,
			"byteOffset":2112,
			"target":34963
		},
		{
			"buffer":0,
			"byteLength":9288,
			"byteOffset":2880,
			"target":34962
		},
		{
			"buffer":0,
			"byteLength":9288,
			"byteOffset":12168,
			"target":34962
		},
		{
			"buffer":0,
			"byteLength":6192,
			"byteOffset":21456,
			"target":34962
		},
		{
			"buffer":0,
			"byteLength":5688,
			"byteOffset":27648,
			"target":34963
		},
		{
			"buffer":0,
			"byteLength":111696,
			"byteOffset":33336,
			"target":34962
		},
		{
			"buffer":0,
			"byteLength":111696,
			"byteOffset":145032,
			"target":34962
		},
		{
			"buffer":0,
			"byteLength":74464,
			"byteOffset":256728,
			"target":34962
		},
		{
			"buffer":0,
			"byteLength":96768,
			"byteOffset":331192,
			"target":34963
		},
		{
			"buffer":0,
			"byteLength":9288,
			"byteOffset":427960,
			"target":34962
		},
		{
			"buffer":0,
			"byteLength":9288,
			"byteOffset":437248,
			"target":34962
		},
		{
			"buffer":0,
			"byteLength":6192,
			"byteOffset":446536,
			"target":34962
		},
		{
			"buffer":0,
			"byteLength":7680,
			"byteOffset":452728,
			"target":34963
		},
		{
			"buffer":0,
			"byteLength":15288,
			"byteOffset":460408,
			"target":34962
		},
		{
			"buffer":0,
			"byteLength":15288,
			"byteOffset":475696,
			"target":34962
		},
		{
			"buffer":0,
			"byteLength":10192,
			"byteOffset":490984,
			"target":34962
		},
		{
			"buffer":0,
			"byteLength":12240,
			"byteOffset":501176,
			"target":34963
		},
		{
			"buffer":0,
			"byteLength":9288,
			"byteOffset":513416,
			"target":34962
		},
		{
			"buffer":0,
			"byteLength":9288,
			"byteOffset":522704,
			"target":34962
		},
		{
			"buffer":0,
			"byteLength":6192,
			"byteOffset":531992,
			"target":34962
		},
		{
			"buffer":0,
			"byteLength":7680,
			"byteOffset":538184,
			"target":34963
		},
		{
			"buffer":0,
			"byteLength":3264,
			"byteOffset":545864,
			"target":34962
		},
		{
			"buffer":0,
			"byteLength":3264,
			"byteOffset":549128,
			"target":34962
		},
		{
			"buffer":0,
			"byteLength":2176,
			"byteOffset":552392,
			"target":34962
		},
		{
			"buffer":0,
			"byteLength":2412,
			"byteOffset":554568,
			"target":34963
		}
	],
	"samplers":[
		{
			"magFilter":9729,
			"minFilter":9987
		}
	],
	"buffers":[
		{
			"byteLength":556980,
			"uri":"Kamo.bin"
		}
	]
}
